<?xml version="1.0" encoding="UTF-8"?>
<!DOCTYPE svg PUBLIC "-//W3C//DTD SVG 1.1//EN" "http://www.w3.org/Graphics/SVG/1.1/DTD/svg11.dtd">
<!-- Creator: CorelDRAW -->
<svg xmlns="http://www.w3.org/2000/svg" xml:space="preserve" width="18.4503mm" height="29.598mm" version="1.1" style="shape-rendering:geometricPrecision; text-rendering:geometricPrecision; image-rendering:optimizeQuality; fill-rule:evenodd; clip-rule:evenodd"
viewBox="0 0 573.95 920.73"
 xmlns:xlink="http://www.w3.org/1999/xlink"
 xmlns:xodm="http://www.corel.com/coreldraw/odm/2003">
 <defs>
  <style type="text/css">
   <![CDATA[
    .fil0 {fill:#373435;fill-rule:nonzero;fill-opacity:0.290196}
   ]]>
  </style>
 </defs>
 <g id="Слой_x0020_1">
  <metadata id="CorelCorpID_0Corel-Layer"/>
  <path class="fil0" d="M175.59 920.73c-50.48,0 -92.91,-21.58 -127.3,-64.75 -32.19,-40.97 -48.29,-87.06 -48.29,-138.27 0,-114.13 71.7,-236.31 215.09,-366.54l0 -12.07c0,-63.65 17.19,-132.79 51.58,-207.41 40.97,-87.79 90.72,-131.69 149.25,-131.69 24.14,0 43.53,7.5 58.16,22.5 14.63,15 21.95,34.57 21.95,58.71 0,42.43 -31.46,94.38 -94.38,155.84l-148.15 131.69c1.46,13.9 4.21,31.28 8.23,52.13 4.03,20.85 8.6,45.18 13.72,72.98 10.24,-16.1 21.95,-31.46 35.12,-46.09 13.17,-14.63 28.17,-28.17 44.99,-40.61 37.31,-28.53 72.43,-42.8 105.35,-42.8 35.85,0 64.01,14.63 84.5,43.9 19.02,25.61 28.53,56.7 28.53,93.28 0,40.24 -15.36,91.09 -46.09,152.54 -26.34,54.14 -55.24,99.5 -86.69,136.08l48.29 43.9c24.87,22.68 37.31,37.31 37.31,43.9 0,5.85 -2.56,8.78 -7.68,8.78 -3.66,0 -34.75,-26.34 -93.28,-79.01 -70.97,75.36 -154.37,113.03 -250.21,113.03zm79.01 -604.68l127.3 -105.35c56.33,-51.94 84.5,-93.65 84.5,-125.11 0,-13.17 -4.94,-24.51 -14.82,-34.02 -9.88,-9.51 -21.04,-14.27 -33.47,-14.27 -37.31,0 -74.26,38.04 -110.84,114.13 -30.73,62.19 -48.29,117.06 -52.68,164.61zm-79.01 571.75c84.87,0 160.22,-34.02 226.07,-102.06 -67.31,-62.92 -114.86,-134.62 -142.66,-215.1 -11.71,25.61 -17.56,55.97 -17.56,91.09 0,14.63 -4.02,22.68 -12.07,24.14 -6.58,-3.66 -9.88,-13.9 -9.88,-30.73 0,-36.58 9.88,-74.62 29.63,-114.13 -14.63,-51.94 -24.51,-97.67 -29.63,-137.18 -117.06,121.45 -175.59,227.9 -175.59,319.35 0,42.43 11.34,79.38 34.02,110.84 24.87,35.85 57.43,53.77 97.67,53.77zm242.53 -120.72c29.27,-33.65 54.51,-72.43 75.72,-116.32 24.87,-50.48 37.31,-94.38 37.31,-131.69 0,-30.73 -6.95,-56.7 -20.85,-77.92 -16.1,-24.87 -38.41,-37.31 -66.94,-37.31 -25.6,0 -55.6,14.27 -89.99,42.8 -13.9,11.71 -26.7,23.78 -38.41,36.22 -11.71,12.44 -22.31,25.97 -31.82,40.61 26.34,97.3 71.33,178.51 134.98,243.62z"/>
 </g>
</svg>
